# xmcd
#
# Track frame offsets:
#	150
#	24711
#	64841
#	81803
#	99872
#	119881
#	135231
#	149419
#	178864
#	210270
#
# Disc length: 3071 seconds
# Revision: 4
# Processed by: cddbd v1.5.2PL0 Copyright (c) Steve Scherf et al.
# Submitted via: dBpowerAMP V12.0
#
DISCID=8a0bfd0a
DTITLE=Jeff Healey Band - Mess Of Blues
DYEAR=2008
DGENRE=Blues
TTITLE0=I'm Torn Down
TTITLE1=How Blue Can You Get
TTITLE2=Sugar Sweet
TTITLE3=Jambalaya
TTITLE4=The Weight
TTITLE5=Mess O' Blues
TTITLE6=It's Only Money
TTITLE7=Like A Hurricane
TTITLE8=Sittin' On Top Of The World
TTITLE9=Shake, Rattle And Roll
EXTD=
EXTT0=
EXTT1=
EXTT2=
EXTT3=
EXTT4=
EXTT5=
EXTT6=
EXTT7=
EXTT8=
EXTT9=
PLAYORDER=
